{"title":"Haven 2001 DVD9rip English Klam","uid":7096773,"size":2631246241,"categoryP":"video","categoryS":"movies","magnet":"?xt=urn:btih:a06d762b2a612629701bdb714e6cc7a7a769cc56&amp;dn=Haven+2001+DVD9rip+English+Klam&amp;tr=udp%3A%2F%2Ftracker.openbittorrent.com%3A80&amp;tr=udp%3A%2F%2Fopen.demonii.com%3A1337&amp;tr=udp%3A%2F%2Ftracker.coppersurfer.tk%3A6969&amp;tr=udp%3A%2F%2Fexodus.desync.com%3A6969","seeders":0,"leechers":2,"uploader":"Klambake","files":-1,"time":1331579352,"description":"With: Natasha Richardson, Martin Landau en Anne Bancroft\n\nRuth Gruber is een Amerikaans-Joodse medewerkster van Binnenlandse Zaken die tijdens de Tweede Wereldoorlog 1000 vluchtelingen vergezelt op een reis over de Atlantische Oceaan naar een veilige haven in Amerika. Als ze eindelijk, na een turbulente en zeer gevaarlijke reis aankomen op de plaats van bestemming, blijkt hun onderkomen een angstwekkende gelijkenis te hebben met de concentratiekampen die ze net verlaten hebben.\n\nThis is the true story of a woman named Ruth Gruber who travels to Europe to help escort 1000 Jewish War victims to the United States...\n\n------------------------ Dutch Friends ------------------------\n---------------------------------------------------------------\n- Bezoek ook eens mijn vrienden op: &lt;a href=&quot; http://www.Film-Test.nl&quot; rel=&quot;nofollow&quot; target=&quot;_NEW&quot;&gt; http://www.Film-Test.nl&lt;/a&gt; --\n----- voor mijn Nederlandse Sync. ondertitels ---- en meer ----\n------- http://www.Film-Test.nl ---- voor Films en meer -------\n---------------------------------------------------------------\n\nGeneral:\n\nComplete name                    : HavenHaven.avi\nFormat                           : AVI\nFormat/Info                      : Audio Video Interleave\nFile size                        : 2.45 GiB\nDuration                         : 2h 55mn\nOverall bit rate                 : 1 997 Kbps\n\nVideo:\n\nFormat                           : MPEG-4 Visual\nFormat profile                   : Simple@L3\nFormat settings, BVOP            : No\nFormat settings, QPel            : No\nFormat settings, GMC             : No warppoints\nFormat settings, Matrix          : Default (H.263)\nCodec ID                         : XVID\nCodec ID/Hint                    : XviD\nDuration                         : 2h 55mn\nBit rate                         : 1 794 Kbps\nWidth                            : 704 pixels\nHeight                           : 396 pixels\nDisplay aspect ratio             : 16:9\nFrame rate                       : 25.000 fps\nColor space                      : YUV\nChroma subsampling               : 4:2:0\nBit depth                        : 8 bits\nScan type                        : Progressive\nCompression mode                 : Lossy\nBits/(Pixel*Frame)               : 0.257\nStream size                      : 2.20 GiB (90%)\nWriting library                  : XviD 1.1.2 (UTC 2006-11-01)\n\nAudio:\n\nFormat                           : AC-3\nFormat/Info                      : Audio Coding 3\nMode extension                   : CM (complete main)\nCodec ID                         : 2000\nDuration                         : 2h 55mn\nBit rate mode                    : Constant\nBit rate                         : 192 Kbps\nChannel(s)                       : 2 channels\nChannel positions                : Front: L R\nSampling rate                    : 48.0 KHz\nBit depth                        : 16 bits\nCompression mode                 : Lossy\nStream size                      : 241 MiB (10%)\nAlignment                        : Aligned on interleaves\nInterleave, duration             : 32 ms (0.80 video frame)\nInterleave, preload duration     : 128 ms\n\n","torrent":{"xt":"urn:btih:a06d762b2a612629701bdb714e6cc7a7a769cc56","amp;dn":"Haven+2001+DVD9rip+English+Klam","amp;tr":["udp%3A%2F%2Ftracker.openbittorrent.com%3A80","udp%3A%2F%2Fopen.demonii.com%3A1337","udp%3A%2F%2Ftracker.coppersurfer.tk%3A6969","udp%3A%2F%2Fexodus.desync.com%3A6969"],"infoHash":"a06d762b2a612629701bdb714e6cc7a7a769cc56","infoHashBuffer":{"type":"Buffer","data":[160,109,118,43,42,97,38,41,112,27,219,113,78,108,199,167,167,105,204,86]},"announce":[],"urlList":[]}}